HIERARCHY
ROOT Hips
{
	OFFSET -0.179506 -22.333345 2.821913
	CHANNELS 6 Xposition Yposition Zposition Zrotation Yrotation Xrotation 
	JOINT LeftUpLeg
	{
		OFFSET 6.951974 -9.140623 -0.681533
		CHANNELS 3 Zrotation Yrotation Xrotation
		JOINT LeftLeg
		{
			OFFSET 3.427654 -37.519855 -0.449580
			CHANNELS 3 Zrotation Yrotation Xrotation
			JOINT LeftFoot
			{
				OFFSET -1.359570 -39.796059 -4.369333
				CHANNELS 3 Zrotation Yrotation Xrotation
				JOINT LeftToe
				{
					OFFSET 2.635814 -5.579078 11.928840
					CHANNELS 3 Zrotation Yrotation Xrotation
					End Site
					{
						OFFSET 0.000000 0.000000 0.000000
					}
				}
			}
		}
	}
	JOINT RightUpLeg
	{
		OFFSET -6.767048 -9.052170 -0.431982
		CHANNELS 3 Zrotation Yrotation Xrotation
		JOINT RightLeg
		{
			OFFSET -3.829005 -38.256897 -0.885003
			CHANNELS 3 Zrotation Yrotation Xrotation
			JOINT RightFoot
			{
				OFFSET 1.577377 -39.841461 -4.231180
				CHANNELS 3 Zrotation Yrotation Xrotation
				JOINT RightToe
				{
					OFFSET -2.537174 -4.814398 12.334795
					CHANNELS 3 Zrotation Yrotation Xrotation
					End Site
					{
						OFFSET 0.000000 0.000000 0.000000
					}
				}
			}
		}
	}
	JOINT Spine
	{
		OFFSET -0.253288 10.896323 -2.669631
		CHANNELS 3 Zrotation Yrotation Xrotation
		JOINT Spine1
		{
			OFFSET 0.548704 13.518043 0.109247
			CHANNELS 3 Zrotation Yrotation Xrotation
			JOINT Spine2
			{
				OFFSET 0.145701 5.292222 2.542457
				CHANNELS 3 Zrotation Yrotation Xrotation
				JOINT Neck
				{
					OFFSET -0.277840 21.387037 -4.285703
					CHANNELS 3 Zrotation Yrotation Xrotation
					JOINT Head
					{
						OFFSET 0.515184 6.496960 5.134897
						CHANNELS 3 Zrotation Yrotation Xrotation
						End Site
						{
							OFFSET 0.000000 0.000000 0.000000
						}
					}
				}
				JOINT LeftShoulder
				{
					OFFSET 7.884473 12.174932 -3.408961
					CHANNELS 3 Zrotation Yrotation Xrotation
					JOINT LeftArm
					{
						OFFSET 9.097692 3.046888 -0.886815
						CHANNELS 3 Zrotation Yrotation Xrotation
						JOINT LeftForeArm
						{
							OFFSET 25.961220 -1.277207 -2.745643
							CHANNELS 3 Zrotation Yrotation Xrotation
							JOINT LeftHand
							{
								OFFSET 24.923361 0.898606 -0.117091
								CHANNELS 3 Zrotation Yrotation Xrotation
								End Site
								{
									OFFSET 0.000000 0.000000 0.000000
								}
							}
						}
					}
				}
				JOINT RightShoulder
				{
					OFFSET -8.175920 11.883285 -3.861528
					CHANNELS 3 Zrotation Yrotation Xrotation
					JOINT RightArm
					{
						OFFSET -9.601238 3.255117 -0.914307
						CHANNELS 3 Zrotation Yrotation Xrotation
						JOINT RightForeArm
						{
							OFFSET -25.374195 -1.332924 -2.140099
							CHANNELS 3 Zrotation Yrotation Xrotation
							JOINT RightHand
							{
								OFFSET -25.529810 0.777228 -0.555919
								CHANNELS 3 Zrotation Yrotation Xrotation
								End Site
								{
									OFFSET 0.000000 0.000000 0.000000
								}
							}
						}
					}
				}
			}
		}
	}
}
MOTION
Frames: 7
Frame Time: 0.033333
-0.179506 112.009338 2.821913 169.754513 -73.131562 -177.250929 12.674035 5.823440 8.710103 1.676268 -4.196983 -0.173993 -3.801008 11.602492 -6.409772 1.111131 -1.195446 -0.654588 -4.973651 -4.364674 6.269785 -1.947403 -0.548867 3.722913 0.210479 -10.535280 -14.910738 1.782253 1.022342 -1.749759 1.609581 0.801833 7.560145 -0.903223 -1.894706 -4.251353 0.861105 0.357648 3.395014 -4.855109 6.853121 0.325893 -2.455777 5.241953 -8.090110 -17.217712 -3.212275 -0.452858 -42.571691 -5.181077 5.453678 0.609014 -11.324910 4.469867 -11.133474 -11.045338 2.012938 16.710344 7.058612 -0.539824 45.680013 3.355927 11.288459 -1.006415 21.783497 7.359718 9.644619 8.562839 0.732367 
-0.096956 112.059738 2.854434 169.894411 -72.836926 -177.302702 12.586659 5.840803 8.691432 1.743559 -4.184487 -0.258796 -3.858269 11.863745 -6.256632 1.119502 -1.208855 -0.673055 -4.948552 -4.255218 6.172555 -1.961535 -0.199501 3.491485 0.242145 -10.634006 -14.593306 1.791981 1.037334 -1.730745 1.724769 0.746634 7.440353 -0.906075 -1.895234 -4.311396 0.861471 0.337306 3.500005 -4.953493 7.051788 -0.033130 -2.635983 5.299621 -8.047300 -17.088943 -3.271072 -0.495271 -42.917873 -5.169114 5.702483 0.546806 -11.240556 4.668637 -11.105253 -10.951889 2.043988 16.616828 7.122888 -0.723229 45.922036 3.626996 11.446570 -1.295420 21.771479 7.007730 9.339715 8.559227 0.566934 
0.073569 112.092514 3.030294 170.422982 -72.435551 -177.746641 12.534097 5.868717 8.596591 1.794189 -4.237144 -0.243763 -3.836483 12.226422 -6.331823 1.148704 -1.206888 -0.719068 -4.888270 -4.081863 5.852782 -1.957947 0.243692 3.498276 0.293642 -10.746753 -14.272746 1.795919 1.044019 -1.694927 1.853104 0.690572 7.388727 -0.962488 -1.842917 -4.285049 0.909863 0.295977 3.631277 -5.106447 7.257906 -0.358810 -2.906088 5.300822 -8.064195 -16.994963 -3.381496 -0.505977 -43.243994 -5.125100 5.927363 0.459754 -11.042502 4.900683 -10.938700 -10.796168 2.003982 16.423084 7.280250 -0.974065 46.233634 3.964311 11.621957 -1.643725 21.883704 6.730179 8.849171 8.563102 0.121330 
0.184552 112.117722 3.134730 170.439692 -72.031678 -177.602944 12.409114 5.937139 8.364271 1.723164 -4.176189 -0.073271 -3.801718 12.477997 -6.342958 1.139246 -1.183795 -0.741086 -4.940361 -3.992243 5.463105 -2.003721 0.516946 3.519057 0.376592 -10.735702 -14.080671 1.802027 1.025839 -1.650406 1.878579 0.640870 7.411615 -1.073467 -1.817408 -4.314293 0.993216 0.251958 3.814484 -5.241683 7.417285 -0.559024 -3.151832 5.214972 -8.194015 -16.920549 -3.506209 -0.452721 -43.580243 -5.009170 6.241009 0.247266 -10.683948 5.475807 -10.705490 -10.563275 2.258148 16.237513 7.433927 -1.179131 46.449274 4.286546 11.748109 -1.808162 22.264502 6.653719 8.216451 8.599964 -0.370091 
0.311482 112.146530 3.141330 170.298726 -71.678920 -177.176194 12.307358 6.049719 7.937995 1.641050 -4.086563 0.156930 -3.826868 12.613866 -6.177630 1.120974 -1.146292 -0.753916 -4.983947 -3.900283 4.743830 -1.981124 0.662395 3.913373 0.408644 -10.739056 -14.040235 1.828720 0.985804 -1.610457 1.955310 0.476410 7.514881 -1.171134 -1.841242 -4.364791 1.098581 0.130479 4.044226 -5.491665 7.821425 -0.855702 -3.456548 5.484401 -8.477208 -16.796796 -3.686761 -0.378083 -44.084189 -4.770814 6.811584 -0.155397 -10.621864 6.516169 -10.544662 -10.412202 2.476615 15.938461 7.647875 -1.406781 46.547644 4.667978 11.888165 -1.985254 23.105427 6.645538 7.495277 8.770442 -0.829278 
0.290459 112.177628 3.052679 169.748978 -71.576536 -176.025276 12.083954 6.135071 7.220042 1.592172 -3.725344 0.337851 -3.956626 12.466587 -5.966448 1.092290 -1.099332 -0.755907 -5.022330 -3.708753 3.542613 -2.018914 0.581857 4.832085 0.364681 -10.942679 -14.184884 1.881641 0.902995 -1.533697 2.052090 0.112342 7.733926 -1.251432 -1.977681 -4.482729 1.194521 -0.114159 4.295216 -5.823345 8.152591 -1.276457 -3.857010 5.826996 -8.897247 -16.639824 -4.167079 -0.291104 -44.794619 -4.574509 7.707611 -0.678401 -10.906062 8.328927 -10.593489 -10.322871 2.956534 15.485522 7.834773 -1.633258 46.474883 4.933752 11.962392 -2.103376 24.192708 6.736622 6.782657 9.149250 -1.325281 
0.104697 112.200729 2.815973 169.191383 -71.336126 -174.420584 11.792346 6.216431 6.101787 1.618643 -3.304123 0.726994 -4.120899 12.385418 -5.788487 1.101941 -1.050687 -0.789092 -4.989881 -3.132999 1.424388 -1.997819 0.623143 6.779892 0.144144 -11.444370 -14.600919 1.968273 0.798509 -1.493333 2.293886 -0.627946 8.341320 -1.286467 -2.277048 -4.584223 1.276330 -0.585696 4.498194 -6.321925 8.758298 -2.156407 -4.388054 6.485533 -9.872988 -16.496360 -5.019758 -0.189689 -45.433577 -4.468562 8.822015 -1.315438 -12.118135 10.835974 -10.789439 -10.385278 3.541154 14.949652 8.001357 -1.818155 46.145564 4.960941 11.862463 -2.322506 25.449393 6.651960 6.295603 9.589311 -1.969201 
